<mxfile host="app.diagrams.net" agent="Mozilla/5.0 (Windows NT 10.0; Win64; x64) AppleWebKit/537.36 (KHTML, like Gecko) Chrome/132.0.0.0 Safari/537.36" version="26.0.14">
  <diagram name="Page-1" id="DcugSiu_cbYxFmEMiEeH">
    <mxGraphModel dx="1000" dy="588" grid="1" gridSize="10" guides="1" tooltips="1" connect="1" arrows="1" fold="1" page="1" pageScale="1" pageWidth="827" pageHeight="1169" math="0" shadow="0">
      <root>
        <mxCell id="0" />
        <mxCell id="1" parent="0" />
        <mxCell id="LM8ySa6xfrPVKAJdyR4M-16" value="Personeel" style="swimlane;childLayout=stackLayout;horizontal=1;startSize=50;horizontalStack=0;rounded=1;fontSize=14;fontStyle=0;strokeWidth=2;resizeParent=0;resizeLast=1;shadow=0;dashed=0;align=center;arcSize=4;whiteSpace=wrap;html=1;" vertex="1" parent="1">
          <mxGeometry x="40" y="385" width="160" height="140" as="geometry" />
        </mxCell>
        <mxCell id="LM8ySa6xfrPVKAJdyR4M-17" value="+P_NO&lt;br&gt;+P_VAN&lt;br&gt;+P_NAAM&lt;div&gt;+P_ID&lt;/div&gt;&lt;div&gt;+WINKEL_NO&lt;/div&gt;" style="align=left;strokeColor=none;fillColor=none;spacingLeft=4;fontSize=12;verticalAlign=top;resizable=0;rotatable=0;part=1;html=1;" vertex="1" parent="LM8ySa6xfrPVKAJdyR4M-16">
          <mxGeometry y="50" width="160" height="90" as="geometry" />
        </mxCell>
        <mxCell id="LM8ySa6xfrPVKAJdyR4M-18" value="Winkel" style="swimlane;childLayout=stackLayout;horizontal=1;startSize=50;horizontalStack=0;rounded=1;fontSize=14;fontStyle=0;strokeWidth=2;resizeParent=0;resizeLast=1;shadow=0;dashed=0;align=center;arcSize=4;whiteSpace=wrap;html=1;" vertex="1" parent="1">
          <mxGeometry x="370" y="380" width="160" height="150" as="geometry" />
        </mxCell>
        <mxCell id="LM8ySa6xfrPVKAJdyR4M-19" value="+WINKEL_NO&lt;br&gt;+WINKEL_NAAM&lt;br&gt;+WINKEL_ASTRAT&lt;div&gt;+WINKEL_AVOORSTAD&lt;/div&gt;&lt;div&gt;+WINKEL_ADORP&lt;/div&gt;&lt;div&gt;+WINKEL_APOSKODE&lt;/div&gt;" style="align=left;strokeColor=none;fillColor=none;spacingLeft=4;fontSize=12;verticalAlign=top;resizable=0;rotatable=0;part=1;html=1;" vertex="1" parent="LM8ySa6xfrPVKAJdyR4M-18">
          <mxGeometry y="50" width="160" height="100" as="geometry" />
        </mxCell>
        <mxCell id="LM8ySa6xfrPVKAJdyR4M-23" value="" style="edgeStyle=entityRelationEdgeStyle;fontSize=12;html=1;endArrow=ERmandOne;startArrow=ERoneToMany;rounded=0;exitX=1;exitY=0.25;exitDx=0;exitDy=0;strokeWidth=3;entryX=0;entryY=0.25;entryDx=0;entryDy=0;startFill=0;endFill=0;" edge="1" parent="1" source="LM8ySa6xfrPVKAJdyR4M-17" target="LM8ySa6xfrPVKAJdyR4M-19">
          <mxGeometry width="100" height="100" relative="1" as="geometry">
            <mxPoint x="40" y="540" as="sourcePoint" />
            <mxPoint x="280" y="400" as="targetPoint" />
            <Array as="points">
              <mxPoint x="150" y="590" />
              <mxPoint x="150" y="560" />
            </Array>
          </mxGeometry>
        </mxCell>
      </root>
    </mxGraphModel>
  </diagram>
</mxfile>
